<svg width="24" height="30" viewBox="0 0 24 30" fill="none" xmlns="http://www.w3.org/2000/svg">
  <path d="M14.667 2.333v4.134c0 1.12 0 1.68.218 2.108a2 2 0 0 0 .874.874c.427.218.988.218 2.108.218H22m-14 12h1.333l2-4 2 4H16m6.667-10.02v8.686c0 2.8 0 4.2-.545 5.27a5 5 0 0 1-2.185 2.185c-1.07.545-2.47.545-5.27.545H9.333c-2.8 0-4.2 0-5.27-.545a5 5 0 0 1-2.185-2.185c-.545-1.07-.545-2.47-.545-5.27V9.667c0-2.8 0-4.2.545-5.27a5 5 0 0 1 2.185-2.185c1.07-.545 2.47-.545 5.27-.545h3.353c1.223 0 1.835 0 2.41.138a5 5 0 0 1 1.445.598c.505.31.937.742 1.802 1.607l1.98 1.98c.865.865 1.298 1.297 1.607 1.802.274.447.476.935.599 1.445.138.576.138 1.187.138 2.41Z" stroke="#fff" stroke-width="1.5" stroke-linecap="round" stroke-linejoin="round"/>
</svg>
