<svg width="28" height="34" viewBox="0 0 28 34" fill="none" xmlns="http://www.w3.org/2000/svg"><path d="M1.389 1v15l4.222-4.222V5.333h9c0 .056 4.278-.555 7.389 4.5 2.333 3.792.222 8.537-1.222 9.89l3.055 3c4.445-5.279 3.6-9.615 2.753-12.89C24.389 3.556 18.49 1 14.61 1H1.39Z" fill="#fff"/><path d="M8.833 14.222 1 22.056v6l7.833-7.834L21.611 33h6L8.833 14.222Z" fill="#fff"/><path d="M1.389 1v15l4.222-4.222V5.333h9c0 .056 4.278-.555 7.389 4.5 2.333 3.792.222 8.537-1.222 9.89l3.055 3c4.445-5.279 3.6-9.615 2.753-12.89C24.389 3.556 18.49 1 14.61 1H1.39Z" stroke="#000" stroke-width=".115"/><path d="M8.833 14.222 1 22.056v6l7.833-7.834L21.611 33h6L8.833 14.222Z" stroke="#000" stroke-width=".115"/></svg>