<?xml version="1.0" standalone="no"?>
<!DOCTYPE svg PUBLIC "-//W3C//DTD SVG 20010904//EN"
 "http://www.w3.org/TR/2001/REC-SVG-20010904/DTD/svg10.dtd">
<svg version="1.0" xmlns="http://www.w3.org/2000/svg"
 width="1088.000000pt" height="1088.000000pt" viewBox="0 0 1088.000000 1088.000000"
 preserveAspectRatio="xMidYMid meet">
<metadata>
Created by potrace 1.14, written by Peter Selinger 2001-2017
</metadata>
<g transform="translate(0.000000,1088.000000) scale(0.100000,-0.100000)"
fill="#000000" stroke="none">
<path d="M1389 10556 c-4 -80 -3 -4819 1 -4826 3 -4 315 304 695 684 l690 691
0 1025 0 1025 1520 -1 c1584 0 1668 -2 1835 -38 14 -3 41 -9 60 -12 198 -34
521 -164 737 -295 36 -21 69 -39 73 -39 5 0 10 -3 12 -7 2 -5 23 -21 48 -38
207 -138 488 -401 642 -600 39 -51 42 -55 66 -80 13 -14 19 -25 15 -25 -4 0
-1 -6 7 -13 8 -7 20 -20 25 -29 6 -8 43 -64 83 -122 39 -59 72 -111 72 -117 0
-5 5 -9 10 -9 6 0 10 -4 10 -10 0 -5 17 -38 37 -73 21 -34 39 -69 41 -77 2 -8
10 -22 18 -31 8 -8 14 -19 14 -23 0 -4 9 -27 20 -51 33 -72 79 -195 73 -195
-3 0 -1 -6 5 -12 5 -7 22 -60 37 -118 27 -108 30 -120 39 -180 3 -19 8 -48 12
-65 15 -80 27 -240 27 -380 1 -98 -10 -291 -18 -330 -2 -11 -6 -38 -9 -60 -10
-77 -17 -121 -33 -195 -10 -41 -16 -79 -15 -84 2 -4 -3 -14 -9 -22 -6 -8 -9
-14 -6 -14 3 0 1 -15 -4 -32 -6 -18 -12 -44 -15 -58 -8 -38 -104 -321 -120
-351 -7 -15 -10 -29 -7 -33 4 -3 1 -6 -5 -6 -7 0 -12 -5 -12 -12 0 -13 -22
-63 -82 -183 -45 -91 -38 -79 -114 -205 -31 -52 -61 -96 -65 -98 -5 -2 -9 -8
-9 -14 0 -14 -101 -141 -157 -196 -24 -24 -43 -48 -43 -52 0 -4 44 -51 98
-104 53 -53 207 -204 342 -336 135 -133 313 -308 396 -391 84 -82 156 -149
162 -149 11 0 200 236 285 355 31 44 63 89 72 100 31 39 127 191 196 310 39
66 74 127 79 135 19 31 141 280 141 287 0 4 6 17 13 28 13 20 97 222 100 240
1 6 4 15 7 20 8 13 39 108 39 118 0 4 6 20 14 36 9 16 13 31 10 34 -3 3 0 15
6 27 6 12 13 29 16 38 2 9 13 55 25 102 25 103 22 90 49 225 12 61 23 124 25
141 2 18 6 54 10 80 3 27 8 76 11 109 2 33 7 83 9 110 10 117 4 458 -10 605
-3 25 -7 70 -10 100 -3 30 -8 69 -11 85 -3 17 -7 47 -9 68 -5 41 -42 245 -59
327 -3 14 -11 50 -17 80 -6 30 -29 127 -51 215 -22 88 -41 165 -42 170 -3 14
-52 144 -94 245 -48 119 -170 371 -190 394 -10 10 -15 19 -12 20 2 0 -20 43
-50 94 -30 52 -59 102 -65 113 -5 10 -13 19 -17 19 -5 0 -8 7 -8 15 0 8 -4 15
-10 15 -5 0 -10 6 -10 13 0 7 -8 22 -19 33 -10 11 -24 31 -31 45 -18 33 -175
242 -194 258 -9 8 -16 17 -16 22 0 4 -10 19 -22 31 -13 13 -45 50 -73 83 -78
93 -323 334 -440 434 -64 54 -182 146 -260 202 -49 35 -91 67 -93 72 -2 4 -9
7 -16 7 -7 0 -21 8 -32 18 -10 9 -31 23 -46 31 -16 8 -28 18 -28 23 0 4 -5 8
-11 8 -6 0 -50 24 -97 53 -48 29 -107 64 -132 76 -248 128 -267 138 -410 198
-19 8 -44 19 -55 24 -89 39 -385 140 -385 132 0 -3 -6 -1 -13 5 -7 6 -24 13
-37 15 -14 2 -32 6 -40 9 -15 6 -86 25 -125 33 -11 2 -40 9 -65 15 -25 6 -56
13 -70 15 -14 2 -36 7 -50 9 -52 12 -67 14 -145 25 -44 7 -93 14 -110 17 -16
3 -55 7 -85 10 -30 3 -1064 7 -2297 9 l-2243 3 -1 -22z"/>
<path d="M2523 5091 l-1260 -1260 0 -980 c-1 -540 2 -981 6 -981 3 0 571 565
1262 1256 l1256 1256 2041 -2041 2041 -2040 88 1 c49 1 94 -2 101 -6 7 -4 12
-4 12 1 0 4 396 7 880 7 484 -1 880 1 880 3 0 7 -6037 6043 -6043 6043 -3 0
-572 -567 -1264 -1259z"/>
</g>
</svg>
